<svg width="47" height="47" viewBox="0 0 47 47" fill="none" xmlns="http://www.w3.org/2000/svg">
<rect x="0.634766" y="0.748047" width="45" height="45" rx="22.5" fill="white" fill-opacity="0.05" stroke="url(#paint0_linear_2522_817)"/>
<g clip-path="url(#clip0_2522_817)">
<path d="M33.3175 15.493C31.7875 14.803 30.1475 14.293 28.4325 14.003C28.4172 14 28.4014 14.0019 28.3872 14.0084C28.3731 14.0148 28.3613 14.0255 28.3535 14.039C28.1435 14.408 27.9095 14.889 27.7455 15.269C25.9266 14.9972 24.0774 14.9972 22.2585 15.269C22.0758 14.8478 21.8698 14.4372 21.6415 14.039C21.6337 14.0253 21.622 14.0144 21.6079 14.0076C21.5938 14.0008 21.578 13.9985 21.5625 14.001C19.8485 14.291 18.2085 14.801 16.6775 15.492C16.6643 15.4975 16.6531 15.5069 16.6455 15.519C13.5335 20.094 12.6805 24.556 13.0995 28.962C13.1006 28.9727 13.104 28.9832 13.1093 28.9926C13.1147 29.0021 13.1219 29.0104 13.1305 29.017C14.9469 30.3394 16.9728 31.3468 19.1235 31.997C19.1385 32.0016 19.1545 32.0016 19.1695 31.9969C19.1845 31.9923 19.1977 31.9832 19.2075 31.9709C19.6695 31.3509 20.0815 30.6959 20.4335 30.0079C20.4545 29.9679 20.4345 29.9199 20.3925 29.9039C19.7465 29.6607 19.1206 29.3671 18.5205 29.0259C18.5097 29.0198 18.5006 29.0111 18.494 29.0005C18.4875 28.99 18.4836 28.978 18.4828 28.9656C18.482 28.9532 18.4843 28.9408 18.4895 28.9295C18.4947 28.9183 18.5026 28.9084 18.5125 28.9009C18.6385 28.8079 18.7645 28.711 18.8845 28.614C18.8953 28.6052 18.9083 28.5997 18.9221 28.5979C18.9358 28.5961 18.9498 28.5982 18.9625 28.604C22.8895 30.368 27.1425 30.368 31.0235 28.604C31.0362 28.5979 31.0503 28.5955 31.0643 28.5971C31.0782 28.5987 31.0915 28.6042 31.1025 28.6129C31.2225 28.7109 31.3475 28.8079 31.4745 28.9009C31.4845 28.9083 31.4925 28.918 31.4979 28.9292C31.5032 28.9403 31.5057 28.9527 31.5051 28.9651C31.5045 28.9774 31.5008 28.9895 31.4945 29.0001C31.4881 29.0107 31.4791 29.0196 31.4685 29.0259C30.8705 29.3699 30.2485 29.661 29.5955 29.903C29.5855 29.9066 29.5763 29.9123 29.5687 29.9198C29.561 29.9272 29.5551 29.9362 29.5512 29.9462C29.5473 29.9561 29.5456 29.9668 29.5462 29.9774C29.5467 29.9881 29.5496 29.9985 29.5545 30.0079C29.9145 30.695 30.3265 31.3489 30.7795 31.9699C30.7889 31.9827 30.802 31.9922 30.8171 31.9972C30.8321 32.0022 30.8483 32.0025 30.8635 31.9979C33.0178 31.3496 35.0471 30.3417 36.8655 29.017C36.8744 29.0107 36.8818 29.0027 36.8873 28.9934C36.8928 28.9841 36.8963 28.9737 36.8975 28.9629C37.3975 23.8689 36.0595 19.443 33.3485 15.521C33.3418 15.5082 33.3308 15.4983 33.3175 15.493ZM21.0205 26.2789C19.8385 26.2789 18.8635 25.2099 18.8635 23.8989C18.8635 22.5869 19.8195 21.5189 21.0205 21.5189C22.2305 21.5189 23.1965 22.5959 23.1775 23.8989C23.1775 25.2109 22.2215 26.2789 21.0205 26.2789ZM28.9955 26.2789C27.8125 26.2789 26.8385 25.2099 26.8385 23.8989C26.8385 22.5869 27.7935 21.5189 28.9955 21.5189C30.2055 21.5189 31.1715 22.5959 31.1525 23.8989C31.1525 25.2109 30.2065 26.2789 28.9955 26.2789Z" fill="white"/>
<path d="M33.3175 15.493C31.7875 14.803 30.1475 14.293 28.4325 14.003C28.4172 14 28.4014 14.0019 28.3872 14.0084C28.3731 14.0148 28.3613 14.0255 28.3535 14.039C28.1435 14.408 27.9095 14.889 27.7455 15.269C25.9266 14.9972 24.0774 14.9972 22.2585 15.269C22.0758 14.8478 21.8698 14.4372 21.6415 14.039C21.6337 14.0253 21.622 14.0144 21.6079 14.0076C21.5938 14.0008 21.578 13.9985 21.5625 14.001C19.8485 14.291 18.2085 14.801 16.6775 15.492C16.6643 15.4975 16.6531 15.5069 16.6455 15.519C13.5335 20.094 12.6805 24.556 13.0995 28.962C13.1006 28.9727 13.104 28.9832 13.1093 28.9926C13.1147 29.0021 13.1219 29.0104 13.1305 29.017C14.9469 30.3394 16.9728 31.3468 19.1235 31.997C19.1385 32.0016 19.1545 32.0016 19.1695 31.9969C19.1845 31.9923 19.1977 31.9832 19.2075 31.9709C19.6695 31.3509 20.0815 30.6959 20.4335 30.0079C20.4545 29.9679 20.4345 29.9199 20.3925 29.9039C19.7465 29.6607 19.1206 29.3671 18.5205 29.0259C18.5097 29.0198 18.5006 29.0111 18.494 29.0005C18.4875 28.99 18.4836 28.978 18.4828 28.9656C18.482 28.9532 18.4843 28.9408 18.4895 28.9295C18.4947 28.9183 18.5026 28.9084 18.5125 28.9009C18.6385 28.8079 18.7645 28.711 18.8845 28.614C18.8953 28.6052 18.9083 28.5997 18.9221 28.5979C18.9358 28.5961 18.9498 28.5982 18.9625 28.604C22.8895 30.368 27.1425 30.368 31.0235 28.604C31.0362 28.5979 31.0503 28.5955 31.0643 28.5971C31.0782 28.5987 31.0915 28.6042 31.1025 28.6129C31.2225 28.7109 31.3475 28.8079 31.4745 28.9009C31.4845 28.9083 31.4925 28.918 31.4979 28.9292C31.5032 28.9403 31.5057 28.9527 31.5051 28.9651C31.5045 28.9774 31.5008 28.9895 31.4945 29.0001C31.4881 29.0107 31.4791 29.0196 31.4685 29.0259C30.8705 29.3699 30.2485 29.661 29.5955 29.903C29.5855 29.9066 29.5763 29.9123 29.5687 29.9198C29.561 29.9272 29.5551 29.9362 29.5512 29.9462C29.5473 29.9561 29.5456 29.9668 29.5462 29.9774C29.5467 29.9881 29.5496 29.9985 29.5545 30.0079C29.9145 30.695 30.3265 31.3489 30.7795 31.9699C30.7889 31.9827 30.802 31.9922 30.8171 31.9972C30.8321 32.0022 30.8483 32.0025 30.8635 31.9979C33.0178 31.3496 35.0471 30.3417 36.8655 29.017C36.8744 29.0107 36.8818 29.0027 36.8873 28.9934C36.8928 28.9841 36.8963 28.9737 36.8975 28.9629C37.3975 23.8689 36.0595 19.443 33.3485 15.521C33.3418 15.5082 33.3308 15.4983 33.3175 15.493ZM21.0205 26.2789C19.8385 26.2789 18.8635 25.2099 18.8635 23.8989C18.8635 22.5869 19.8195 21.5189 21.0205 21.5189C22.2305 21.5189 23.1965 22.5959 23.1775 23.8989C23.1775 25.2109 22.2215 26.2789 21.0205 26.2789ZM28.9955 26.2789C27.8125 26.2789 26.8385 25.2099 26.8385 23.8989C26.8385 22.5869 27.7935 21.5189 28.9955 21.5189C30.2055 21.5189 31.1715 22.5959 31.1525 23.8989C31.1525 25.2109 30.2065 26.2789 28.9955 26.2789Z" fill="url(#paint1_linear_2522_817)"/>
</g>
<defs>
<linearGradient id="paint0_linear_2522_817" x1="-5.98541" y1="-14.4464" x2="47.653" y2="-11.2292" gradientUnits="userSpaceOnUse">
<stop offset="0.0364395" stop-color="#FBF4B7"/>
<stop offset="0.322909" stop-color="#31CDE2"/>
<stop offset="0.635422" stop-color="#5276FF"/>
<stop offset="1" stop-color="#D874FF"/>
</linearGradient>
<linearGradient id="paint1_linear_2522_817" x1="9.80677" y1="8.24962" x2="37.715" y2="10.4815" gradientUnits="userSpaceOnUse">
<stop offset="0.0364395" stop-color="#FBF4B7"/>
<stop offset="0.322909" stop-color="#31CDE2"/>
<stop offset="0.635422" stop-color="#5276FF"/>
<stop offset="1" stop-color="#D874FF"/>
</linearGradient>
<clipPath id="clip0_2522_817">
<rect width="24" height="24" fill="white" transform="translate(13 11)"/>
</clipPath>
</defs>
</svg>
