<svg width="46" height="46" viewBox="0 0 46 46" fill="none" xmlns="http://www.w3.org/2000/svg">
<rect x="0.5" y="0.5" width="45" height="45" rx="22.5" fill="white" fill-opacity="0.05" stroke="url(#paint0_linear_2522_816)"/>
<path d="M23.0001 19.8753C21.2798 19.8753 19.8759 21.2792 19.8759 22.9995C19.8759 24.7198 21.2798 26.1237 23.0001 26.1237C24.7204 26.1237 26.1243 24.7198 26.1243 22.9995C26.1243 21.2792 24.7204 19.8753 23.0001 19.8753ZM32.3704 22.9995C32.3704 21.7058 32.3821 20.4237 32.3095 19.1323C32.2368 17.6323 31.8946 16.3011 30.7978 15.2042C29.6986 14.105 28.3696 13.7652 26.8696 13.6925C25.5759 13.6198 24.2939 13.6316 23.0025 13.6316C21.7087 13.6316 20.4267 13.6198 19.1353 13.6925C17.6353 13.7652 16.304 14.1073 15.2071 15.2042C14.1079 16.3034 13.7681 17.6323 13.6954 19.1323C13.6228 20.4261 13.6345 21.7081 13.6345 22.9995C13.6345 24.2909 13.6228 25.5753 13.6954 26.8667C13.7681 28.3667 14.1103 29.698 15.2071 30.7948C16.3064 31.8941 17.6353 32.2339 19.1353 32.3066C20.429 32.3792 21.711 32.3675 23.0025 32.3675C24.2962 32.3675 25.5782 32.3792 26.8696 32.3066C28.3696 32.2339 29.7009 31.8917 30.7978 30.7948C31.897 29.6956 32.2368 28.3667 32.3095 26.8667C32.3845 25.5753 32.3704 24.2933 32.3704 22.9995ZM23.0001 27.8066C20.34 27.8066 18.1931 25.6597 18.1931 22.9995C18.1931 20.3394 20.34 18.1925 23.0001 18.1925C25.6603 18.1925 27.8071 20.3394 27.8071 22.9995C27.8071 25.6597 25.6603 27.8066 23.0001 27.8066ZM28.004 19.1183C27.3829 19.1183 26.8814 18.6167 26.8814 17.9956C26.8814 17.3745 27.3829 16.873 28.004 16.873C28.6251 16.873 29.1267 17.3745 29.1267 17.9956C29.1269 18.1431 29.0979 18.2892 29.0416 18.4255C28.9852 18.5617 28.9026 18.6856 28.7983 18.7899C28.694 18.8942 28.5702 18.9768 28.4339 19.0332C28.2976 19.0895 28.1515 19.1185 28.004 19.1183Z" fill="white"/>
<path d="M23.0001 19.8753C21.2798 19.8753 19.8759 21.2792 19.8759 22.9995C19.8759 24.7198 21.2798 26.1237 23.0001 26.1237C24.7204 26.1237 26.1243 24.7198 26.1243 22.9995C26.1243 21.2792 24.7204 19.8753 23.0001 19.8753ZM32.3704 22.9995C32.3704 21.7058 32.3821 20.4237 32.3095 19.1323C32.2368 17.6323 31.8946 16.3011 30.7978 15.2042C29.6986 14.105 28.3696 13.7652 26.8696 13.6925C25.5759 13.6198 24.2939 13.6316 23.0025 13.6316C21.7087 13.6316 20.4267 13.6198 19.1353 13.6925C17.6353 13.7652 16.304 14.1073 15.2071 15.2042C14.1079 16.3034 13.7681 17.6323 13.6954 19.1323C13.6228 20.4261 13.6345 21.7081 13.6345 22.9995C13.6345 24.2909 13.6228 25.5753 13.6954 26.8667C13.7681 28.3667 14.1103 29.698 15.2071 30.7948C16.3064 31.8941 17.6353 32.2339 19.1353 32.3066C20.429 32.3792 21.711 32.3675 23.0025 32.3675C24.2962 32.3675 25.5782 32.3792 26.8696 32.3066C28.3696 32.2339 29.7009 31.8917 30.7978 30.7948C31.897 29.6956 32.2368 28.3667 32.3095 26.8667C32.3845 25.5753 32.3704 24.2933 32.3704 22.9995ZM23.0001 27.8066C20.34 27.8066 18.1931 25.6597 18.1931 22.9995C18.1931 20.3394 20.34 18.1925 23.0001 18.1925C25.6603 18.1925 27.8071 20.3394 27.8071 22.9995C27.8071 25.6597 25.6603 27.8066 23.0001 27.8066ZM28.004 19.1183C27.3829 19.1183 26.8814 18.6167 26.8814 17.9956C26.8814 17.3745 27.3829 16.873 28.004 16.873C28.6251 16.873 29.1267 17.3745 29.1267 17.9956C29.1269 18.1431 29.0979 18.2892 29.0416 18.4255C28.9852 18.5617 28.9026 18.6856 28.7983 18.7899C28.694 18.8942 28.5702 18.9768 28.4339 19.0332C28.2976 19.0895 28.1515 19.1185 28.004 19.1183Z" fill="url(#paint1_linear_2522_816)"/>
<defs>
<linearGradient id="paint0_linear_2522_816" x1="-6.12017" y1="-14.6944" x2="47.5182" y2="-11.4772" gradientUnits="userSpaceOnUse">
<stop offset="0.0364395" stop-color="#FBF4B7"/>
<stop offset="0.322909" stop-color="#31CDE2"/>
<stop offset="0.635422" stop-color="#5276FF"/>
<stop offset="1" stop-color="#D874FF"/>
</linearGradient>
<linearGradient id="paint1_linear_2522_816" x1="11.1408" y1="7.64532" x2="32.9899" y2="8.95586" gradientUnits="userSpaceOnUse">
<stop offset="0.0364395" stop-color="#FBF4B7"/>
<stop offset="0.322909" stop-color="#31CDE2"/>
<stop offset="0.635422" stop-color="#5276FF"/>
<stop offset="1" stop-color="#D874FF"/>
</linearGradient>
</defs>
</svg>
