<svg width="172" height="47" viewBox="0 0 172 47" fill="none" xmlns="http://www.w3.org/2000/svg">
<path d="M32.8022 0.459961C32.939 0.619466 33.0073 0.784668 33.0073 0.955566V1.229C33.0073 2.23161 32.2782 3.67855 30.8198 5.56982C30.2274 6.48128 29.8799 7.52946 29.7773 8.71436C29.7773 8.81689 27.5614 9.16439 23.1294 9.75684C22.7648 9.75684 22.5085 10.224 22.3604 11.1582C22.1895 11.6595 21.9331 11.9899 21.5913 12.1494C21.4432 12.1494 20.2754 12.8957 18.0879 14.3882H18.2417L21.5229 12.8501L21.5913 12.9868C21.3521 13.9552 20.9989 14.4395 20.5317 14.4395C19.4266 15.1003 17.4954 16.3649 14.7383 18.2334C14.1003 18.4727 13.4508 18.8885 12.79 19.481C13.5534 19.1164 15.1826 18.4214 17.6777 17.396C21.1868 15.7554 22.9813 14.9351 23.061 14.9351V15.0034C22.1382 15.7554 21.1812 16.3877 20.1899 16.9004L14.0376 33.9731H14.1743C14.9491 33.506 15.8833 33.0845 16.9771 32.7085V32.7939C16.8631 32.9307 15.6725 33.6997 13.4053 35.1011C11.3317 36.605 9.46322 37.7899 7.7998 38.6558L7.45801 39.083C7.84538 38.8438 8.8252 38.4222 10.3975 37.8184C10.9443 37.431 11.8102 37.0379 12.9951 36.6392C13.0293 36.7189 13.0464 36.7873 13.0464 36.8442C12.5565 38.519 12.0723 39.3564 11.5938 39.3564C9.69108 40.6553 8.65999 41.3047 8.50049 41.3047L8.36377 41.5269H8.44922L11.7988 39.9888L11.8672 40.1255C11.0924 42.4155 10.6253 43.5833 10.4658 43.6289C8.83659 43.8682 7.90234 43.9878 7.66309 43.9878C7.33268 43.9878 6.38135 43.7542 4.80908 43.2871C3.63558 43.401 2.13737 44.0505 0.314453 45.2354H0.177734V45.167C1.62467 41.3844 2.34814 39.4248 2.34814 39.2881C3.22542 38.7754 4.71794 37.8184 6.82568 36.417C7.01937 36.417 7.23014 36.2803 7.45801 36.0068H7.38965L4.51855 37.2544C4.51855 37.3797 4.00586 37.6133 2.98047 37.9551L2.91211 37.8184L5.98828 29.564C6.88835 29.0741 8.45492 28.0715 10.688 26.5562H10.7563V26.4707H10.6025C9.34928 26.9378 7.25293 27.8493 4.31348 29.2051V29.1538C4.55273 28.9146 5.25342 28.4702 6.41553 27.8208C6.76872 27.4448 6.97949 27.0233 7.04785 26.5562C6.59212 26.8182 5.54395 27.2853 3.90332 27.9575C2.9349 28.5158 2.06901 28.9146 1.30566 29.1538V29.0684C1.52214 28.8633 2.35954 28.3278 3.81787 27.4619C5.18506 26.4365 6.44401 25.6447 7.59473 25.0864C7.73145 24.8244 8.36377 23.1211 9.4917 19.9766C9.993 18.8258 10.4601 17.6125 10.8931 16.3364C11.645 16.0516 12.6248 15.4193 13.8325 14.4395C13.3996 14.6673 11.2747 15.5788 7.45801 17.1738C6.36426 17.8346 5.68636 18.165 5.42432 18.165V18.0283C9.12712 15.7155 11.2747 14.3141 11.8672 13.8242C12.0153 13.266 12.2944 12.4513 12.7046 11.3804H12.5679C8.43213 12.2121 6.23893 12.6279 5.98828 12.6279V12.5596C6.22754 12.2975 6.81429 11.9272 7.74854 11.4487C8.79671 10.5942 9.46891 10.1499 9.76514 10.1157V10.0474H9.61133C7.6403 11.0614 6.24463 11.6937 5.42432 11.9443L5.35596 11.7905C6.84847 9.10173 7.59473 7.51807 7.59473 7.03955C7.69727 6.81169 7.83968 5.96859 8.02197 4.51025C8.32959 4.33936 9.4917 4.15706 11.5083 3.96338L18.1733 2.85254V2.90381C17.6265 3.40511 16.8289 3.94059 15.7808 4.51025V4.5957H15.8491C17.5467 3.9349 20.2526 2.7443 23.9668 1.02393H24.1206C23.5054 1.54801 22.4743 2.19743 21.0273 2.97217C20.5374 3.4279 20.2127 3.66146 20.0532 3.67285V3.7583H20.1216C21.3407 3.29118 22.7591 2.65885 24.377 1.86133C24.6048 1.75879 27.4132 1.29167 32.8022 0.459961ZM24.8726 5.00586H24.9409C26.7752 4.45898 28.0854 3.82666 28.8716 3.10889V3.05762C26.5701 3.80957 25.2371 4.45898 24.8726 5.00586ZM19.4893 3.96338V4.1001C19.6829 4.02035 19.7798 3.95199 19.7798 3.89502H19.6943C19.6146 3.94059 19.5462 3.96338 19.4893 3.96338ZM15.0801 4.86914V5.00586C15.3079 4.86914 15.4504 4.80078 15.5073 4.80078V4.71533H15.439C15.2909 4.81787 15.1712 4.86914 15.0801 4.86914ZM15.1484 8.08203H15.3022C17.6265 7.19336 18.9538 6.56673 19.2842 6.20215V6.1167H19.2158C17.917 6.50407 16.5612 7.13639 15.1484 8.01367V8.08203ZM15.8491 10.3892V10.4575C17.1479 10.1043 18.6234 9.50049 20.2754 8.646C20.4463 8.4751 20.9818 8.17318 21.8818 7.74023C21.8818 7.68327 21.8989 7.60921 21.9331 7.51807H21.8818C20.7425 7.78011 19.0791 8.48649 16.8916 9.63721C16.4928 9.84229 16.1453 10.0929 15.8491 10.3892ZM11.8672 23.5312H11.9355C13.3825 23.1667 14.8807 22.5173 16.4302 21.583C16.8973 21.2982 17.1309 21.133 17.1309 21.0874H17.0454C15.5415 21.509 13.8895 22.2552 12.0894 23.3262C11.9412 23.4401 11.8672 23.5085 11.8672 23.5312ZM10.9614 26.2656V26.3511H11.0298C11.3032 26.2371 11.4399 26.1403 11.4399 26.0605H11.3887C11.1722 26.1973 11.0298 26.2656 10.9614 26.2656ZM51.3789 2.18604C51.0371 2.51644 49.8522 3.27409 47.8242 4.45898C45.8874 5.88314 44.3949 6.84017 43.3467 7.33008C43.0391 7.59212 42.8853 7.74593 42.8853 7.7915H42.9707C44.9873 6.93701 49.0034 5.11979 55.019 2.33984C55.2241 2.2373 55.3779 2.18604 55.4805 2.18604V2.25439C54.4095 2.9266 53.874 3.30827 53.874 3.39941L58.4199 2.56201H59.0352C59.1377 2.5734 59.189 2.62467 59.189 2.71582V3.16016C59.189 3.77539 58.5794 5.01725 57.3604 6.88574C56.1185 7.58073 54.4038 8.66878 52.2163 10.1499H52.1309V10.2183H52.3701C52.7005 9.94482 53.7088 9.4891 55.395 8.85107C57.3547 7.7915 58.5168 7.26172 58.8813 7.26172V7.41553C56.5116 8.81689 55.3267 9.67708 55.3267 9.99609C55.2241 10.4974 55.1729 10.8221 55.1729 10.9702C55.1729 11.0044 55.1956 11.3348 55.2412 11.9614C55.2412 12.1323 53.9025 12.3602 51.2251 12.645C50.7238 12.7931 48.804 13.1235 45.4658 13.6362C45.0329 13.8299 43.8936 14.0521 42.0479 14.3027C41.6491 14.9635 41.2218 16.2567 40.7661 18.1821L52.5239 16.5757V16.6611C52.3302 16.9346 51.4928 17.4644 50.0117 18.2505C49.2712 18.9113 48.3654 19.5208 47.2944 20.0791V20.1475H47.4312C47.6362 19.8512 48.7983 19.3442 50.9175 18.6265C53.5151 17.4188 54.8538 16.8149 54.9336 16.8149H55.019C54.8254 17.0542 54.193 17.4587 53.1221 18.0283C52.6777 18.8258 52.4499 19.3556 52.4385 19.6177H52.5239C53.1961 19.2075 53.6462 19.0024 53.874 19.0024V19.0879C53.874 19.1449 53.2189 19.5721 51.9087 20.3696C51.3049 21.1102 50.8776 22.1982 50.627 23.6338C50.627 23.7477 47.7445 24.2262 41.9795 25.0693C40.111 25.377 39.1768 25.582 39.1768 25.6846L37.3652 30.3843C37.3652 30.4299 37.3368 30.5039 37.2798 30.6064C38.4647 30.5039 39.7008 30.3045 40.9883 30.0083V30.0767C40.5098 30.521 39.7293 31.0508 38.647 31.666H38.7153C39.5698 31.2217 41.5409 30.3615 44.6284 29.0854L52.6606 25.4453H52.7461C52.5752 25.6618 51.6125 26.2941 49.8579 27.3423C49.4819 27.6727 48.7015 28.2025 47.5166 28.9316H47.585C50.3193 28.5329 51.9372 28.2594 52.4385 28.1113L52.5239 28.2651V28.4019C52.5239 29.3247 51.584 30.5894 49.7041 32.1958C49.613 32.1958 49.0091 32.8053 47.8926 34.0244C46.6849 34.651 45.1183 35.6366 43.1929 36.981V37.0493C43.922 36.5708 45.8931 35.6878 49.106 34.4004C51.2479 33.3408 52.4328 32.811 52.6606 32.811C52.3416 33.0959 51.4587 33.6484 50.0117 34.4688C49.3965 35.0042 48.4395 35.665 47.1406 36.4512V37.1177C47.1406 37.9266 47.0381 38.3311 46.833 38.3311C44.1214 38.3311 41.3415 38.6387 38.4932 39.2539C37.4108 39.2539 32.8649 40.2394 24.8555 42.2104C24.7415 42.2104 23.8073 42.4098 22.0527 42.8086C22.0527 42.763 22.0243 42.7402 21.9673 42.7402C22.0243 42.387 22.9357 41.7547 24.7017 40.8433C27.5158 38.8836 29.3843 37.6702 30.3071 37.2031L30.4609 36.981H30.3755C30.1704 37.1519 29.1849 37.5791 27.4189 38.2627C25.8239 39.1742 24.3883 39.8293 23.1123 40.228L23.0269 40.0742V40.0059C23.9725 39.1058 25.5391 38.0177 27.7266 36.7417H27.6582L23.7959 38.4849C23.7389 38.3823 23.7104 38.3083 23.7104 38.2627C24.7358 35.8929 25.3169 34.3776 25.4536 33.7168C26.2511 33.3408 28.7804 31.723 33.0415 28.8633H32.9561C32.318 29.2051 31.2812 29.6608 29.8457 30.2305C28.6266 30.9368 27.4645 31.4666 26.3594 31.8198C26.3594 31.7743 26.3366 31.7515 26.291 31.7515C27.3506 29.1994 27.8804 27.855 27.8804 27.7183H27.7266C26.8721 28.231 26.1429 28.5614 25.5391 28.7095V28.6411C28.4671 26.8182 31.0933 25.075 33.4175 23.4116C33.9871 23.104 34.3175 22.9502 34.4087 22.9502V22.8818H34.3232C34.1523 22.8818 32.4377 23.6623 29.1792 25.2231C27.2424 25.9523 25.3682 26.7612 23.5566 27.6499C23.3971 27.7524 23.249 27.8037 23.1123 27.8037H22.9585C26.6043 25.4681 29.8115 23.3433 32.5801 21.4292L34.4771 20.3013H34.3232C31.6572 21.5659 30.2673 22.1982 30.1533 22.1982L30.085 22.0444C30.2786 21.7254 30.8597 20.1304 31.8281 17.2593C32.3864 16.1541 32.6655 15.4478 32.6655 15.1401H32.5801C31.7256 15.6187 30.8654 16.0003 29.9995 16.2852V16.1997C30.5578 15.6756 32.1756 14.6388 34.853 13.0894L39.7065 9.84229H39.6382L27.812 15.1401C27.7095 15.1971 27.6297 15.2256 27.5728 15.2256V15.0718C32.1756 12.2121 34.4771 10.6683 34.4771 10.4404C34.7277 9.43783 34.9556 8.22445 35.1606 6.80029C35.6619 6.62939 36.6987 6.4528 38.271 6.27051C41.4383 5.62109 43.6372 5.21663 44.8677 5.05713C48.6616 3.29118 50.832 2.33415 51.3789 2.18604ZM40.0142 11.5854C41.3244 11.2323 42.9137 10.5715 44.7822 9.60303C44.9873 9.43213 45.5684 9.10742 46.5254 8.62891C46.5254 8.54915 46.5767 8.44661 46.6792 8.32129H46.6108C45.2323 8.73145 43.5347 9.46631 41.5181 10.5259C40.675 10.993 40.1737 11.2949 40.0142 11.4316V11.5854ZM43.8765 11.9614V12.0298H44.0303C45.181 11.6538 46.1665 11.2493 46.9868 10.8164L48.4224 9.91064H48.354C47.2603 10.0815 45.7677 10.7651 43.8765 11.9614ZM37.2114 23.0186H37.3652C38.778 22.6198 40.1167 22.016 41.3813 21.207C41.632 21.0589 41.7573 20.9564 41.7573 20.8994H41.6035C41.1022 21.1387 40.1395 21.5203 38.7153 22.0444L37.2114 23.0186ZM29.4014 34.9302V34.9985C30.9508 34.4744 31.811 34.1497 31.9819 34.0244C32.4149 33.8649 33.446 33.2839 35.0752 32.2812H34.9385C33.127 32.9421 31.9136 33.4206 31.2983 33.7168L29.4014 34.9302ZM102.512 3.91211V3.98047C101.543 6.56673 100.911 8.33838 100.615 9.29541H100.683C101.23 9.01058 102.233 8.57194 103.691 7.97949C104.318 7.53516 104.819 7.31299 105.195 7.31299C101.891 9.40934 98.0399 11.9557 93.6421 14.9521C91.409 16.2852 90.2925 16.9915 90.2925 17.0713H90.3608C90.714 16.8092 91.8078 16.3478 93.6421 15.687C96.8664 14.1603 98.7121 13.3115 99.1792 13.1406L99.2476 13.2944C97.1512 19.3784 95.6473 23.5711 94.7358 25.8726C94.5877 26.2144 94.5137 26.5277 94.5137 26.8125H94.582C94.7757 26.8125 95.6758 26.4308 97.2822 25.6675H97.436C97.2082 25.9751 96.3309 26.5277 94.8042 27.3252L90.1558 30.4526C90.0532 30.5096 89.9792 30.5381 89.9336 30.5381V30.5894H90.0874C93.2775 29.2336 96.0859 28.0031 98.5127 26.8979H98.5811C98.1823 27.3195 96.8265 28.1911 94.5137 29.5127C91.2894 31.7572 88.3101 33.694 85.5757 35.3232V35.4771L92.4116 32.3496L92.48 32.4863C91.7052 34.7992 91.1185 36.3543 90.7197 37.1519C87.6436 38.6444 85.5871 39.3906 84.5503 39.3906C82.3856 40.0742 80.5627 40.7806 79.0815 41.5098C79.0474 41.4186 79.0303 41.3446 79.0303 41.2876C81.7419 32.9591 83.5534 27.5815 84.4648 25.1548C84.5218 24.8813 84.5503 24.682 84.5503 24.5566C83.9237 25.2288 82.9325 26.7612 81.5767 29.1538C77.2131 35.4657 75.0312 38.7868 75.0312 39.1172C74.9287 39.1514 74.8547 39.1685 74.8091 39.1685C74.0457 39.1685 73.1001 39.1001 71.9722 38.9634H71.75C71.0322 38.9634 70.0182 39.3507 68.708 40.1255H68.6226C68.6226 39.271 69.0612 34.5428 69.9385 25.9409H69.7847C69.7847 26.3625 69.0555 28.3278 67.5972 31.8369C65.911 36.8044 64.8742 39.7609 64.4868 40.7065C63.7576 41.5041 62.8576 42.0168 61.7866 42.2446C60.8296 42.4839 59.958 42.6035 59.1719 42.6035H58.0781C56.5514 42.6035 54.2785 43.834 51.2593 46.2949C51.0314 46.7393 50.758 46.9614 50.439 46.9614C50.9289 46.0044 51.3618 44.8138 51.7378 43.3896C52.1252 43.3213 55.6457 41.0939 62.2993 36.7075L63.2393 36.041H63.1709C54.9108 39.6868 49.9149 41.9427 48.1831 42.8086L47.8926 42.894V42.8086L51.6182 40.416C51.8118 40.1426 52.3416 39.8293 53.2075 39.4761C53.3556 39.1799 54.1589 37.0208 55.6172 32.999C56.1868 31.6318 58.0041 26.8524 61.0688 18.6606H60.915C60.4251 18.9569 59.3599 19.4183 57.7192 20.0449C55.9761 21.0247 54.8823 21.5146 54.438 21.5146C58.118 19.0651 60.3454 17.6296 61.1201 17.208C63.5241 15.4762 67.8649 12.6678 74.1426 8.78271C74.9857 7.90544 75.9313 7.4668 76.9795 7.4668C76.9795 7.42122 78.1416 7.20475 80.4658 6.81738L80.5513 6.9541C78.9106 15.5674 78.0903 19.9595 78.0903 20.1304V20.1987H78.1587C78.7397 19.2645 79.6797 17.9543 80.9785 16.2681C81.4229 15.2655 82.152 14.5363 83.166 14.0806C83.3369 14.0806 85.6668 12.6051 90.1558 9.6543C90.4064 9.38086 90.6457 9.23275 90.8735 9.20996V9.1416H90.8052C90.6229 9.1416 89.3639 9.72266 87.0283 10.8848C84.818 11.762 82.7103 12.6849 80.7051 13.6533H80.4658C80.4658 13.6077 82.021 12.5881 85.1313 10.5942C87.3302 7.19906 88.6405 5.50146 89.062 5.50146C90.5431 4.54443 91.8761 4.06592 93.061 4.06592C93.6991 4.06592 94.958 4.37923 96.8379 5.00586L98.7349 5.29639C99.4982 5.29639 100.729 4.83496 102.426 3.91211H102.512ZM72.707 8.27002V8.42383C71.693 8.90234 69.6536 9.77393 66.5889 11.0386C64.7887 11.9045 63.7463 12.3887 63.4614 12.4912L63.376 12.3374V12.269C63.6038 11.9386 63.9229 11.1411 64.333 9.87646C66.8167 9.32959 69.5568 8.81689 72.5532 8.33838C72.5532 8.29281 72.6045 8.27002 72.707 8.27002ZM63.3247 22.4546V22.5229C65.592 21.8507 67.506 21.076 69.0669 20.1987L71.8867 18.5239V18.3872C69.7448 18.9797 67.5402 19.9196 65.2729 21.207C64.1906 21.7539 63.5412 22.1698 63.3247 22.4546ZM79.748 22.5229H79.8335C80.1867 22.3293 81.2007 21.9647 82.8755 21.4292C83.9009 20.9507 85.0174 20.3184 86.2251 19.5322V19.4639H86.0029C82.6533 20.5918 80.5684 21.6115 79.748 22.5229ZM86.0884 24.5566V24.6421C87.2847 24.437 89.4608 23.5142 92.6167 21.8735C93.8586 21.2355 94.5422 20.7969 94.6675 20.5576V20.4893C94.3485 20.626 93.4028 20.9393 91.8306 21.4292C89.7114 22.4318 87.8885 23.3831 86.3618 24.2832C86.1795 24.4199 86.0884 24.5111 86.0884 24.5566ZM60.7612 27.8379H60.915L63.376 26.8979C65.1989 25.8953 66.1217 25.3542 66.1445 25.2744H66.0762C65.2559 25.4225 63.6836 26.0833 61.3594 27.2568C60.9606 27.5872 60.7612 27.7809 60.7612 27.8379ZM75.0825 28.1284H75.168C76.7061 27.6157 78.0903 26.9549 79.3208 26.146V26.0947H79.2354C77.834 26.4707 76.5522 27.029 75.3901 27.7695C75.1851 27.986 75.0825 28.1056 75.0825 28.1284ZM60.1973 32.7939V32.9136H60.2485C61.5132 32.5148 62.6354 32.0363 63.6152 31.478C64.2419 31.0907 64.5552 30.8685 64.5552 30.8115H64.4014C63.0684 31.3242 62.1968 31.6945 61.7866 31.9224C61.3423 32.2528 60.8125 32.5433 60.1973 32.7939ZM137.512 0.989746H137.597V1.05811C136.982 1.60498 135.313 2.67025 132.59 4.25391C129.058 6.68066 126.381 8.39535 124.558 9.39795C124.25 9.63721 124.096 9.79102 124.096 9.85938C127.104 8.59473 130.619 7.02816 134.641 5.15967L135.017 5.07422C135.62 5.9515 135.922 7.01676 135.922 8.27002V8.86816C135.478 11.4772 134.772 13.6248 133.803 15.311C130.271 21.019 125.549 24.887 119.636 26.915C118.246 27.2682 116.07 27.6727 113.107 28.1284C112.242 30.7489 111.74 32.0591 111.604 32.0591C110.567 32.6401 109.177 33.5288 107.434 34.7251C107.229 34.7251 107.052 34.8504 106.904 35.1011H106.972C109.171 34.0757 110.584 33.4434 111.21 33.2041C111.21 33.2497 111.239 33.2725 111.296 33.2725C110.088 36.7132 109.382 38.4336 109.177 38.4336C107.445 39.4932 105.144 40.0229 102.272 40.0229C100.677 40.5584 98.883 41.618 96.8892 43.2017C96.6841 43.5549 96.4334 43.7314 96.1372 43.7314C96.3195 43.3441 96.6955 42.2617 97.2651 40.4844L98.7178 36.6904H98.6323C98.5412 36.6904 97.0259 37.3968 94.0864 38.8096C93.7332 38.9577 93.4826 39.0317 93.3345 39.0317V38.9634C93.7446 38.576 94.7814 37.9209 96.4448 36.998C99.7716 34.7194 102.472 32.9762 104.545 31.7686V31.6147L99.8457 33.7339L99.7773 33.5801C99.9141 33.318 100.29 32.2585 100.905 30.4014C101.418 29.3076 101.8 28.1968 102.05 27.0688C102.825 26.7384 105.377 25.0921 109.707 22.1299L111.518 21.002H111.45L96.667 27.5986V27.5132C96.9062 27.2739 97.738 26.7441 99.1621 25.9238C101.019 24.5452 102.46 23.6338 103.486 23.1895C103.634 22.9844 104.671 20.0563 106.596 14.4053C107.097 13.4141 107.451 12.5026 107.656 11.6709H107.587C105.126 12.833 103.782 13.4141 103.554 13.4141C107.154 11.1354 110.214 9.09033 112.731 7.27881C113.54 6.90283 113.945 6.67497 113.945 6.59521H113.791C110.669 8.06494 109 8.82259 108.784 8.86816L108.715 8.71436C109.023 8.28141 109.405 7.22184 109.86 5.53564C113.142 5.09131 115.916 4.51025 118.183 3.79248C120.325 3.23421 123.891 2.70443 128.881 2.20312H128.95C130.351 2.20312 131.667 2.48226 132.897 3.04053C133.615 2.83545 134.749 2.32845 136.298 1.51953C136.902 1.29167 137.307 1.11507 137.512 0.989746ZM109.331 15.1572H109.399C110.778 14.7585 112.469 14.0293 114.475 12.9697L115.996 12.0469V11.9102C114.309 12.3659 112.361 13.2204 110.151 14.4736C109.764 14.6331 109.49 14.861 109.331 15.1572ZM125.925 14.3369V14.4053C127.668 13.9154 129.16 13.209 130.402 12.2861H130.317C128.471 12.8786 127.007 13.5622 125.925 14.3369ZM116.372 19.481H116.44C118.81 18.0796 120.279 17.1681 120.849 16.7466C121.692 15.8123 122.142 14.9294 122.199 14.0977C122.199 13.2432 121.47 12.8159 120.012 12.8159H119.79C119.129 12.9754 118.724 13.1007 118.576 13.1919C118.063 14.7186 117.351 16.6668 116.44 19.0366C116.44 19.2531 116.417 19.4012 116.372 19.481ZM110.834 17.5156H110.92C113.256 16.7181 114.691 16.0117 115.227 15.3965H115.158C113.757 15.7725 112.418 16.3535 111.142 17.1396L110.834 17.5156ZM119.636 22.2153H119.79C121.248 21.8052 122.911 21.0988 124.78 20.0962C125.668 19.6063 126.175 19.2987 126.301 19.1733L126.369 19.0366H126.301C124.079 19.7544 122.638 20.3582 121.977 20.8481C120.439 21.6799 119.659 22.1356 119.636 22.2153ZM170.051 2.16895H170.136V2.2373C170.079 2.33984 169.219 2.89811 167.556 3.91211C167.054 4.32227 166.348 4.77799 165.437 5.2793V5.41602C166.029 5.59831 166.507 5.90592 166.872 6.33887V6.40723C166.234 6.94271 165.021 7.72884 163.232 8.76562C162.696 9.25553 162.269 9.55745 161.95 9.67139V9.73975H162.019C164.047 8.98779 166.826 7.77441 170.358 6.09961C170.507 5.96289 170.911 5.7863 171.572 5.56982V5.65527L168.393 7.77441C169.453 9.13021 169.982 10.4689 169.982 11.7905C169.06 12.3602 167.823 13.1919 166.274 14.2856C166.035 14.2856 165.807 14.4395 165.59 14.7471H165.659L170.051 12.7817L170.136 12.9185V13.6875C170.136 20.1361 166.245 26.9549 158.464 34.144C152.027 39.0545 146.114 41.5098 140.725 41.5098H140.502C139.135 41.5098 138.452 41.4072 138.452 41.2021C138.657 40.9173 139.437 40.4103 140.793 39.6812C142.388 38.576 143.197 38.0234 143.22 38.0234H143.151L130.266 43.7827V43.6973L135.341 40.3647L135.427 40.2109C135.381 40.2109 135.074 40.0856 134.504 39.835C132.282 40.8945 131.069 41.4243 130.864 41.4243C131.263 41.1053 132.402 40.3761 134.282 39.2368C135.25 38.4393 136.287 37.7557 137.392 37.186L137.46 37.0322H137.392C136.492 37.6019 135.205 38.1545 133.53 38.6899H133.444C132.738 38.2798 132.157 37.3228 131.701 35.8188C131.405 34.8504 131.257 33.8421 131.257 32.7939V32.7085C131.257 32.6629 132.163 32.0591 133.974 30.897C135.911 29.507 137.426 28.5443 138.52 28.0088C138.93 27.724 139.135 27.5474 139.135 27.479H139.05C138.264 27.9233 136.674 28.6069 134.282 29.5298C129.952 31.5692 127.451 32.7028 126.779 32.9307V32.8623C127.178 32.5433 128.745 31.535 131.479 29.8374C131.479 27.3081 133.296 23.4173 136.931 18.165C140.428 13.8128 143.767 10.7537 146.945 8.98779C151.229 6.36735 154.943 4.90332 158.088 4.5957C159.239 4.49316 160.122 4.44189 160.737 4.44189H161.113V4.51025C158.151 6.618 155.547 8.28711 153.303 9.51758C153.234 9.51758 153.086 9.67139 152.858 9.979H152.927C155.502 8.90804 157.245 8.07064 158.156 7.4668L170.051 2.16895ZM160.959 10.2012V10.2695H161.113C161.318 10.2012 161.42 10.1271 161.42 10.0474H161.335C161.175 10.1499 161.05 10.2012 160.959 10.2012ZM144.365 14.2856V14.3711C145.88 13.8926 147.014 13.3856 147.766 12.8501C148.381 12.4969 148.711 12.3203 148.757 12.3203V12.1665C146.433 12.9299 144.969 13.6362 144.365 14.2856ZM159.831 16.2681V16.3364H159.899C160.15 16.1883 160.327 16.1143 160.429 16.1143V16.0288H160.275C160.048 16.1883 159.899 16.2681 159.831 16.2681ZM150.192 20.5063C153.519 18.2847 155.24 17.1738 155.354 17.1738L155.576 16.8662C154.835 16.7181 154.203 16.644 153.679 16.644C150.568 16.644 147.891 18.7632 145.646 23.0015C145.316 24.118 145.117 24.6763 145.048 24.6763C144.912 24.6763 144.074 25.2061 142.536 26.2656H142.69C143.351 25.8099 144.063 25.4795 144.826 25.2744L144.895 25.4282C144.792 25.884 144.741 26.2144 144.741 26.4194C144.741 26.6701 144.769 27.0461 144.826 27.5474C143.983 28.0487 142.189 29.2165 139.443 31.0508H139.58C139.967 30.766 140.907 30.3615 142.399 29.8374C143.801 28.9715 144.758 28.5386 145.271 28.5386C145.681 28.9943 146.085 29.2222 146.484 29.2222V29.2905C146.199 29.6779 145.367 30.2646 143.989 31.0508H144.057L147.766 29.376C148.996 29.376 150.466 28.7949 152.175 27.6328C154.043 25.9124 155.177 24.4484 155.576 23.2407C155.815 22.7964 156.123 22.0103 156.499 20.8823C158.732 19.481 159.865 18.7518 159.899 18.6948H159.831C159.125 19.1278 157.609 19.7829 155.285 20.6602C151.548 22.4261 149.628 23.3091 149.526 23.3091V23.2407C149.822 22.9559 151.058 22.147 153.234 20.814C154.545 19.8455 155.633 19.1619 156.499 18.7632C156.499 18.5011 157 18.1479 158.002 17.7036C158.8 16.9972 159.284 16.644 159.455 16.644V16.5586H159.301C157.547 17.2194 154.562 18.5353 150.346 20.5063H150.192ZM157.78 26.7954H157.849C159.136 26.4308 160.834 25.6732 162.941 24.5225C162.998 24.5225 163.124 24.3971 163.317 24.1465H163.232C161.705 24.5566 160.065 25.263 158.31 26.2656L157.78 26.7954ZM148.757 34.6055V34.6738H148.979L152.021 33.5459C153.286 32.9535 154.471 32.2699 155.576 31.4951H155.422C153.041 32.2471 151.075 33.1073 149.526 34.0757C149.15 34.4289 148.894 34.6055 148.757 34.6055Z" fill="url(#paint0_linear_1_20398)"/>
<defs>
<linearGradient id="paint0_linear_1_20398" x1="-21.2172" y1="-21.2804" x2="169.991" y2="10.8319" gradientUnits="userSpaceOnUse">
<stop offset="0.0364395" stop-color="#FBF4B7"/>
<stop offset="0.322909" stop-color="#31CDE2"/>
<stop offset="0.635422" stop-color="#5276FF"/>
<stop offset="1" stop-color="#D874FF"/>
</linearGradient>
</defs>
</svg>
