<svg width="172" height="48" viewBox="0 0 172 48" fill="none" xmlns="http://www.w3.org/2000/svg">
<path d="M32.8022 0.57373C32.939 0.733236 33.0073 0.898438 33.0073 1.06934V1.34277C33.0073 2.34538 32.2782 3.79232 30.8198 5.68359C30.2274 6.59505 29.8799 7.64323 29.7773 8.82812C29.7773 8.93066 27.5614 9.27816 23.1294 9.87061C22.7648 9.87061 22.5085 10.3377 22.3604 11.272C22.1895 11.7733 21.9331 12.1037 21.5913 12.2632C21.4432 12.2632 20.2754 13.0094 18.0879 14.502H18.2417L21.5229 12.9639L21.5913 13.1006C21.3521 14.069 20.9989 14.5532 20.5317 14.5532C19.4266 15.214 17.4954 16.4787 14.7383 18.3472C14.1003 18.5864 13.4508 19.0023 12.79 19.5947C13.5534 19.2301 15.1826 18.5352 17.6777 17.5098C21.1868 15.8691 22.9813 15.0488 23.061 15.0488V15.1172C22.1382 15.8691 21.1812 16.5015 20.1899 17.0142L14.0376 34.0869H14.1743C14.9491 33.6198 15.8833 33.1982 16.9771 32.8223V32.9077C16.8631 33.0444 15.6725 33.8135 13.4053 35.2148C11.3317 36.7188 9.46322 37.9036 7.7998 38.7695L7.45801 39.1968C7.84538 38.9575 8.8252 38.536 10.3975 37.9321C10.9443 37.5448 11.8102 37.1517 12.9951 36.7529C13.0293 36.8327 13.0464 36.901 13.0464 36.958C12.5565 38.6328 12.0723 39.4702 11.5938 39.4702C9.69108 40.769 8.65999 41.4185 8.50049 41.4185L8.36377 41.6406H8.44922L11.7988 40.1025L11.8672 40.2393C11.0924 42.5293 10.6253 43.6971 10.4658 43.7427C8.83659 43.9819 7.90234 44.1016 7.66309 44.1016C7.33268 44.1016 6.38135 43.868 4.80908 43.4009C3.63558 43.5148 2.13737 44.1642 0.314453 45.3491H0.177734V45.2808C1.62467 41.4982 2.34814 39.5386 2.34814 39.4019C3.22542 38.8892 4.71794 37.9321 6.82568 36.5308C7.01937 36.5308 7.23014 36.394 7.45801 36.1206H7.38965L4.51855 37.3682C4.51855 37.4935 4.00586 37.7271 2.98047 38.0688L2.91211 37.9321L5.98828 29.6777C6.88835 29.1878 8.45492 28.1852 10.688 26.6699H10.7563V26.5845H10.6025C9.34928 27.0516 7.25293 27.9631 4.31348 29.3188V29.2676C4.55273 29.0283 5.25342 28.584 6.41553 27.9346C6.76872 27.5586 6.97949 27.137 7.04785 26.6699C6.59212 26.932 5.54395 27.3991 3.90332 28.0713C2.9349 28.6296 2.06901 29.0283 1.30566 29.2676V29.1821C1.52214 28.9771 2.35954 28.4416 3.81787 27.5757C5.18506 26.5503 6.44401 25.7585 7.59473 25.2002C7.73145 24.9382 8.36377 23.2349 9.4917 20.0903C9.993 18.9396 10.4601 17.7262 10.8931 16.4502C11.645 16.1654 12.6248 15.533 13.8325 14.5532C13.3996 14.7811 11.2747 15.6925 7.45801 17.2876C6.36426 17.9484 5.68636 18.2788 5.42432 18.2788V18.1421C9.12712 15.8293 11.2747 14.4279 11.8672 13.938C12.0153 13.3797 12.2944 12.5651 12.7046 11.4941H12.5679C8.43213 12.3258 6.23893 12.7417 5.98828 12.7417V12.6733C6.22754 12.4113 6.81429 12.041 7.74854 11.5625C8.79671 10.708 9.46891 10.2637 9.76514 10.2295V10.1611H9.61133C7.6403 11.1751 6.24463 11.8075 5.42432 12.0581L5.35596 11.9043C6.84847 9.21549 7.59473 7.63184 7.59473 7.15332C7.69727 6.92546 7.83968 6.08236 8.02197 4.62402C8.32959 4.45312 9.4917 4.27083 11.5083 4.07715L18.1733 2.96631V3.01758C17.6265 3.51888 16.8289 4.05436 15.7808 4.62402V4.70947H15.8491C17.5467 4.04867 20.2526 2.85807 23.9668 1.1377H24.1206C23.5054 1.66178 22.4743 2.3112 21.0273 3.08594C20.5374 3.54167 20.2127 3.77523 20.0532 3.78662V3.87207H20.1216C21.3407 3.40495 22.7591 2.77262 24.377 1.9751C24.6048 1.87256 27.4132 1.40544 32.8022 0.57373ZM24.8726 5.11963H24.9409C26.7752 4.57275 28.0854 3.94043 28.8716 3.22266V3.17139C26.5701 3.92334 25.2371 4.57275 24.8726 5.11963ZM19.4893 4.07715V4.21387C19.6829 4.13411 19.7798 4.06576 19.7798 4.00879H19.6943C19.6146 4.05436 19.5462 4.07715 19.4893 4.07715ZM15.0801 4.98291V5.11963C15.3079 4.98291 15.4504 4.91455 15.5073 4.91455V4.8291H15.439C15.2909 4.93164 15.1712 4.98291 15.0801 4.98291ZM15.1484 8.1958H15.3022C17.6265 7.30713 18.9538 6.6805 19.2842 6.31592V6.23047H19.2158C17.917 6.61784 16.5612 7.25016 15.1484 8.12744V8.1958ZM15.8491 10.5029V10.5713C17.1479 10.2181 18.6234 9.61426 20.2754 8.75977C20.4463 8.58887 20.9818 8.28695 21.8818 7.854C21.8818 7.79704 21.8989 7.72298 21.9331 7.63184H21.8818C20.7425 7.89388 19.0791 8.60026 16.8916 9.75098C16.4928 9.95605 16.1453 10.2067 15.8491 10.5029ZM11.8672 23.645H11.9355C13.3825 23.2804 14.8807 22.631 16.4302 21.6968C16.8973 21.4119 17.1309 21.2467 17.1309 21.2012H17.0454C15.5415 21.6227 13.8895 22.369 12.0894 23.4399C11.9412 23.5539 11.8672 23.6222 11.8672 23.645ZM10.9614 26.3794V26.4648H11.0298C11.3032 26.3509 11.4399 26.2541 11.4399 26.1743H11.3887C11.1722 26.311 11.0298 26.3794 10.9614 26.3794ZM51.3789 2.2998C51.0371 2.63021 49.8522 3.38786 47.8242 4.57275C45.8874 5.99691 44.3949 6.95394 43.3467 7.44385C43.0391 7.70589 42.8853 7.8597 42.8853 7.90527H42.9707C44.9873 7.05078 49.0034 5.23356 55.019 2.45361C55.2241 2.35107 55.3779 2.2998 55.4805 2.2998V2.36816C54.4095 3.04036 53.874 3.42204 53.874 3.51318L58.4199 2.67578H59.0352C59.1377 2.68717 59.189 2.73844 59.189 2.82959V3.27393C59.189 3.88916 58.5794 5.13102 57.3604 6.99951C56.1185 7.6945 54.4038 8.78255 52.2163 10.2637H52.1309V10.332H52.3701C52.7005 10.0586 53.7088 9.60286 55.395 8.96484C57.3547 7.90527 58.5168 7.37549 58.8813 7.37549V7.5293C56.5116 8.93066 55.3267 9.79085 55.3267 10.1099C55.2241 10.6112 55.1729 10.9359 55.1729 11.084C55.1729 11.1182 55.1956 11.4486 55.2412 12.0752C55.2412 12.2461 53.9025 12.474 51.2251 12.7588C50.7238 12.9069 48.804 13.2373 45.4658 13.75C45.0329 13.9437 43.8936 14.1659 42.0479 14.4165C41.6491 15.0773 41.2218 16.3704 40.7661 18.2959L52.5239 16.6895V16.7749C52.3302 17.0483 51.4928 17.5781 50.0117 18.3643C49.2712 19.0251 48.3654 19.6346 47.2944 20.1929V20.2612H47.4312C47.6362 19.965 48.7983 19.458 50.9175 18.7402C53.5151 17.5326 54.8538 16.9287 54.9336 16.9287H55.019C54.8254 17.168 54.193 17.5724 53.1221 18.1421C52.6777 18.9396 52.4499 19.4694 52.4385 19.7314H52.5239C53.1961 19.3213 53.6462 19.1162 53.874 19.1162V19.2017C53.874 19.2586 53.2189 19.6859 51.9087 20.4834C51.3049 21.224 50.8776 22.312 50.627 23.7476C50.627 23.8615 47.7445 24.34 41.9795 25.1831C40.111 25.4907 39.1768 25.6958 39.1768 25.7983L37.3652 30.498C37.3652 30.5436 37.3368 30.6177 37.2798 30.7202C38.4647 30.6177 39.7008 30.4183 40.9883 30.1221V30.1904C40.5098 30.6348 39.7293 31.1646 38.647 31.7798H38.7153C39.5698 31.3354 41.5409 30.4753 44.6284 29.1992L52.6606 25.5591H52.7461C52.5752 25.7756 51.6125 26.4079 49.8579 27.4561C49.4819 27.7865 48.7015 28.3162 47.5166 29.0454H47.585C50.3193 28.6466 51.9372 28.3732 52.4385 28.2251L52.5239 28.3789V28.5156C52.5239 29.4385 51.584 30.7031 49.7041 32.3096C49.613 32.3096 49.0091 32.9191 47.8926 34.1382C46.6849 34.7648 45.1183 35.7503 43.1929 37.0947V37.1631C43.922 36.6846 45.8931 35.8016 49.106 34.5142C51.2479 33.4546 52.4328 32.9248 52.6606 32.9248C52.3416 33.2096 51.4587 33.7622 50.0117 34.5825C49.3965 35.118 48.4395 35.7788 47.1406 36.5649V37.2314C47.1406 38.0404 47.0381 38.4448 46.833 38.4448C44.1214 38.4448 41.3415 38.7524 38.4932 39.3677C37.4108 39.3677 32.8649 40.3532 24.8555 42.3242C24.7415 42.3242 23.8073 42.5236 22.0527 42.9224C22.0527 42.8768 22.0243 42.854 21.9673 42.854C22.0243 42.5008 22.9357 41.8685 24.7017 40.957C27.5158 38.9974 29.3843 37.784 30.3071 37.3169L30.4609 37.0947H30.3755C30.1704 37.2656 29.1849 37.6929 27.4189 38.3765C25.8239 39.2879 24.3883 39.943 23.1123 40.3418L23.0269 40.188V40.1196C23.9725 39.2196 25.5391 38.1315 27.7266 36.8555H27.6582L23.7959 38.5986C23.7389 38.4961 23.7104 38.422 23.7104 38.3765C24.7358 36.0067 25.3169 34.4914 25.4536 33.8306C26.2511 33.4546 28.7804 31.8368 33.0415 28.9771H32.9561C32.318 29.3188 31.2812 29.7746 29.8457 30.3442C28.6266 31.0506 27.4645 31.5804 26.3594 31.9336C26.3594 31.888 26.3366 31.8652 26.291 31.8652C27.3506 29.3132 27.8804 27.9688 27.8804 27.832H27.7266C26.8721 28.3447 26.1429 28.6751 25.5391 28.8232V28.7549C28.4671 26.932 31.0933 25.1888 33.4175 23.5254C33.9871 23.2178 34.3175 23.064 34.4087 23.064V22.9956H34.3232C34.1523 22.9956 32.4377 23.776 29.1792 25.3369C27.2424 26.0661 25.3682 26.875 23.5566 27.7637C23.3971 27.8662 23.249 27.9175 23.1123 27.9175H22.9585C26.6043 25.5819 29.8115 23.457 32.5801 21.543L34.4771 20.415H34.3232C31.6572 21.6797 30.2673 22.312 30.1533 22.312L30.085 22.1582C30.2786 21.8392 30.8597 20.2441 31.8281 17.373C32.3864 16.2679 32.6655 15.5615 32.6655 15.2539H32.5801C31.7256 15.7324 30.8654 16.1141 29.9995 16.3989V16.3135C30.5578 15.7894 32.1756 14.7526 34.853 13.2031L39.7065 9.95605H39.6382L27.812 15.2539C27.7095 15.3109 27.6297 15.3394 27.5728 15.3394V15.1855C32.1756 12.3258 34.4771 10.7821 34.4771 10.5542C34.7277 9.5516 34.9556 8.33822 35.1606 6.91406C35.6619 6.74316 36.6987 6.56657 38.271 6.38428C41.4383 5.73486 43.6372 5.3304 44.8677 5.1709C48.6616 3.40495 50.832 2.44792 51.3789 2.2998ZM40.0142 11.6992C41.3244 11.346 42.9137 10.6852 44.7822 9.7168C44.9873 9.5459 45.5684 9.22119 46.5254 8.74268C46.5254 8.66292 46.5767 8.56038 46.6792 8.43506H46.6108C45.2323 8.84521 43.5347 9.58008 41.5181 10.6396C40.675 11.1068 40.1737 11.4087 40.0142 11.5454V11.6992ZM43.8765 12.0752V12.1436H44.0303C45.181 11.7676 46.1665 11.3631 46.9868 10.9302L48.4224 10.0244H48.354C47.2603 10.1953 45.7677 10.8789 43.8765 12.0752ZM37.2114 23.1323H37.3652C38.778 22.7336 40.1167 22.1297 41.3813 21.3208C41.632 21.1727 41.7573 21.0701 41.7573 21.0132H41.6035C41.1022 21.2524 40.1395 21.6341 38.7153 22.1582L37.2114 23.1323ZM29.4014 35.0439V35.1123C30.9508 34.5882 31.811 34.2635 31.9819 34.1382C32.4149 33.9787 33.446 33.3976 35.0752 32.395H34.9385C33.127 33.0558 31.9136 33.5343 31.2983 33.8306L29.4014 35.0439ZM102.512 4.02588V4.09424C101.543 6.6805 100.911 8.45215 100.615 9.40918H100.683C101.23 9.12435 102.233 8.68571 103.691 8.09326C104.318 7.64893 104.819 7.42676 105.195 7.42676C101.891 9.52311 98.0399 12.0695 93.6421 15.0659C91.409 16.3989 90.2925 17.1053 90.2925 17.1851H90.3608C90.714 16.923 91.8078 16.4616 93.6421 15.8008C96.8664 14.2741 98.7121 13.4253 99.1792 13.2544L99.2476 13.4082C97.1512 19.4922 95.6473 23.6849 94.7358 25.9863C94.5877 26.3281 94.5137 26.6414 94.5137 26.9263H94.582C94.7757 26.9263 95.6758 26.5446 97.2822 25.7812H97.436C97.2082 26.0889 96.3309 26.6414 94.8042 27.439L90.1558 30.5664C90.0532 30.6234 89.9792 30.6519 89.9336 30.6519V30.7031H90.0874C93.2775 29.3473 96.0859 28.1169 98.5127 27.0117H98.5811C98.1823 27.4333 96.8265 28.3049 94.5137 29.6265C91.2894 31.8709 88.3101 33.8078 85.5757 35.437V35.5908L92.4116 32.4634L92.48 32.6001C91.7052 34.9129 91.1185 36.4681 90.7197 37.2656C87.6436 38.7581 85.5871 39.5044 84.5503 39.5044C82.3856 40.188 80.5627 40.8944 79.0815 41.6235C79.0474 41.5324 79.0303 41.4583 79.0303 41.4014C81.7419 33.0729 83.5534 27.6953 84.4648 25.2686C84.5218 24.9951 84.5503 24.7957 84.5503 24.6704C83.9237 25.3426 82.9325 26.875 81.5767 29.2676C77.2131 35.5794 75.0312 38.9006 75.0312 39.231C74.9287 39.2651 74.8547 39.2822 74.8091 39.2822C74.0457 39.2822 73.1001 39.2139 71.9722 39.0771H71.75C71.0322 39.0771 70.0182 39.4645 68.708 40.2393H68.6226C68.6226 39.3848 69.0612 34.6566 69.9385 26.0547H69.7847C69.7847 26.4762 69.0555 28.4416 67.5972 31.9507C65.911 36.9181 64.8742 39.8747 64.4868 40.8203C63.7576 41.6178 62.8576 42.1305 61.7866 42.3584C60.8296 42.5977 59.958 42.7173 59.1719 42.7173H58.0781C56.5514 42.7173 54.2785 43.9478 51.2593 46.4087C51.0314 46.853 50.758 47.0752 50.439 47.0752C50.9289 46.1182 51.3618 44.9276 51.7378 43.5034C52.1252 43.4351 55.6457 41.2077 62.2993 36.8213L63.2393 36.1548H63.1709C54.9108 39.8006 49.9149 42.0565 48.1831 42.9224L47.8926 43.0078V42.9224L51.6182 40.5298C51.8118 40.2563 52.3416 39.943 53.2075 39.5898C53.3556 39.2936 54.1589 37.1346 55.6172 33.1128C56.1868 31.7456 58.0041 26.9661 61.0688 18.7744H60.915C60.4251 19.0706 59.3599 19.5321 57.7192 20.1587C55.9761 21.1385 54.8823 21.6284 54.438 21.6284C58.118 19.1789 60.3454 17.7433 61.1201 17.3218C63.5241 15.59 67.8649 12.7816 74.1426 8.89648C74.9857 8.01921 75.9313 7.58057 76.9795 7.58057C76.9795 7.53499 78.1416 7.31852 80.4658 6.93115L80.5513 7.06787C78.9106 15.6812 78.0903 20.0732 78.0903 20.2441V20.3125H78.1587C78.7397 19.3783 79.6797 18.068 80.9785 16.3818C81.4229 15.3792 82.152 14.6501 83.166 14.1943C83.3369 14.1943 85.6668 12.7189 90.1558 9.76807C90.4064 9.49463 90.6457 9.34652 90.8735 9.32373V9.25537H90.8052C90.6229 9.25537 89.3639 9.83643 87.0283 10.9985C84.818 11.8758 82.7103 12.7987 80.7051 13.7671H80.4658C80.4658 13.7215 82.021 12.7018 85.1313 10.708C87.3302 7.31283 88.6405 5.61523 89.062 5.61523C90.5431 4.6582 91.8761 4.17969 93.061 4.17969C93.6991 4.17969 94.958 4.493 96.8379 5.11963L98.7349 5.41016C99.4982 5.41016 100.729 4.94873 102.426 4.02588H102.512ZM72.707 8.38379V8.5376C71.693 9.01611 69.6536 9.8877 66.5889 11.1523C64.7887 12.0182 63.7463 12.5024 63.4614 12.605L63.376 12.4512V12.3828C63.6038 12.0524 63.9229 11.2549 64.333 9.99023C66.8167 9.44336 69.5568 8.93066 72.5532 8.45215C72.5532 8.40658 72.6045 8.38379 72.707 8.38379ZM63.3247 22.5684V22.6367C65.592 21.9645 67.506 21.1898 69.0669 20.3125L71.8867 18.6377V18.501C69.7448 19.0934 67.5402 20.0334 65.2729 21.3208C64.1906 21.8677 63.5412 22.2835 63.3247 22.5684ZM79.748 22.6367H79.8335C80.1867 22.443 81.2007 22.0785 82.8755 21.543C83.9009 21.0645 85.0174 20.4321 86.2251 19.646V19.5776H86.0029C82.6533 20.7056 80.5684 21.7253 79.748 22.6367ZM86.0884 24.6704V24.7559C87.2847 24.5508 89.4608 23.6279 92.6167 21.9873C93.8586 21.3493 94.5422 20.9106 94.6675 20.6714V20.603C94.3485 20.7397 93.4028 21.0531 91.8306 21.543C89.7114 22.5456 87.8885 23.4969 86.3618 24.397C86.1795 24.5337 86.0884 24.6248 86.0884 24.6704ZM60.7612 27.9517H60.915L63.376 27.0117C65.1989 26.0091 66.1217 25.4679 66.1445 25.3882H66.0762C65.2559 25.5363 63.6836 26.1971 61.3594 27.3706C60.9606 27.701 60.7612 27.8947 60.7612 27.9517ZM75.0825 28.2422H75.168C76.7061 27.7295 78.0903 27.0687 79.3208 26.2598V26.2085H79.2354C77.834 26.5845 76.5522 27.1427 75.3901 27.8833C75.1851 28.0998 75.0825 28.2194 75.0825 28.2422ZM60.1973 32.9077V33.0273H60.2485C61.5132 32.6286 62.6354 32.1501 63.6152 31.5918C64.2419 31.2044 64.5552 30.9823 64.5552 30.9253H64.4014C63.0684 31.438 62.1968 31.8083 61.7866 32.0361C61.3423 32.3665 60.8125 32.6571 60.1973 32.9077ZM137.512 1.10352H137.597V1.17188C136.982 1.71875 135.313 2.78402 132.59 4.36768C129.058 6.79443 126.381 8.50911 124.558 9.51172C124.25 9.75098 124.096 9.90479 124.096 9.97314C127.104 8.7085 130.619 7.14193 134.641 5.27344L135.017 5.18799C135.62 6.06527 135.922 7.13053 135.922 8.38379V8.98193C135.478 11.591 134.772 13.7386 133.803 15.4248C130.271 21.1328 125.549 25.0008 119.636 27.0288C118.246 27.382 116.07 27.7865 113.107 28.2422C112.242 30.8626 111.74 32.1729 111.604 32.1729C110.567 32.7539 109.177 33.6426 107.434 34.8389C107.229 34.8389 107.052 34.9642 106.904 35.2148H106.972C109.171 34.1895 110.584 33.5571 111.21 33.3179C111.21 33.3634 111.239 33.3862 111.296 33.3862C110.088 36.827 109.382 38.5474 109.177 38.5474C107.445 39.6069 105.144 40.1367 102.272 40.1367C100.677 40.6722 98.883 41.7318 96.8892 43.3154C96.6841 43.6686 96.4334 43.8452 96.1372 43.8452C96.3195 43.4578 96.6955 42.3755 97.2651 40.5981L98.7178 36.8042H98.6323C98.5412 36.8042 97.0259 37.5106 94.0864 38.9233C93.7332 39.0715 93.4826 39.1455 93.3345 39.1455V39.0771C93.7446 38.6898 94.7814 38.0347 96.4448 37.1118C99.7716 34.8332 102.472 33.09 104.545 31.8823V31.7285L99.8457 33.8477L99.7773 33.6938C99.9141 33.4318 100.29 32.3722 100.905 30.5151C101.418 29.4214 101.8 28.3105 102.05 27.1826C102.825 26.8522 105.377 25.2059 109.707 22.2437L111.518 21.1157H111.45L96.667 27.7124V27.627C96.9062 27.3877 97.738 26.8579 99.1621 26.0376C101.019 24.659 102.46 23.7476 103.486 23.3032C103.634 23.0981 104.671 20.1701 106.596 14.519C107.097 13.5278 107.451 12.6164 107.656 11.7847H107.587C105.126 12.9468 103.782 13.5278 103.554 13.5278C107.154 11.2492 110.214 9.2041 112.731 7.39258C113.54 7.0166 113.945 6.78874 113.945 6.70898H113.791C110.669 8.17871 109 8.93636 108.784 8.98193L108.715 8.82812C109.023 8.39518 109.405 7.33561 109.86 5.64941C113.142 5.20508 115.916 4.62402 118.183 3.90625C120.325 3.34798 123.891 2.8182 128.881 2.31689H128.95C130.351 2.31689 131.667 2.59603 132.897 3.1543C133.615 2.94922 134.749 2.44222 136.298 1.6333C136.902 1.40544 137.307 1.22884 137.512 1.10352ZM109.331 15.271H109.399C110.778 14.8722 112.469 14.1431 114.475 13.0835L115.996 12.1606V12.0239C114.309 12.4797 112.361 13.3341 110.151 14.5874C109.764 14.7469 109.49 14.9748 109.331 15.271ZM125.925 14.4507V14.519C127.668 14.0291 129.16 13.3228 130.402 12.3999H130.317C128.471 12.9924 127.007 13.6759 125.925 14.4507ZM116.372 19.5947H116.44C118.81 18.1934 120.279 17.2819 120.849 16.8604C121.692 15.9261 122.142 15.0431 122.199 14.2114C122.199 13.3569 121.47 12.9297 120.012 12.9297H119.79C119.129 13.0892 118.724 13.2145 118.576 13.3057C118.063 14.8324 117.351 16.7806 116.44 19.1504C116.44 19.3669 116.417 19.515 116.372 19.5947ZM110.834 17.6294H110.92C113.256 16.8319 114.691 16.1255 115.227 15.5103H115.158C113.757 15.8862 112.418 16.4673 111.142 17.2534L110.834 17.6294ZM119.636 22.3291H119.79C121.248 21.9189 122.911 21.2126 124.78 20.21C125.668 19.7201 126.175 19.4124 126.301 19.2871L126.369 19.1504H126.301C124.079 19.8682 122.638 20.472 121.977 20.9619C120.439 21.7936 119.659 22.2493 119.636 22.3291ZM170.051 2.28271H170.136V2.35107C170.079 2.45361 169.219 3.01188 167.556 4.02588C167.054 4.43604 166.348 4.89176 165.437 5.39307V5.52979C166.029 5.71208 166.507 6.01969 166.872 6.45264V6.521C166.234 7.05648 165.021 7.84261 163.232 8.87939C162.696 9.3693 162.269 9.67122 161.95 9.78516V9.85352H162.019C164.047 9.10156 166.826 7.88818 170.358 6.21338C170.507 6.07666 170.911 5.90007 171.572 5.68359V5.76904L168.393 7.88818C169.453 9.24398 169.982 10.5827 169.982 11.9043C169.06 12.474 167.823 13.3057 166.274 14.3994C166.035 14.3994 165.807 14.5532 165.59 14.8608H165.659L170.051 12.8955L170.136 13.0322V13.8013C170.136 20.2498 166.245 27.0687 158.464 34.2578C152.027 39.1683 146.114 41.6235 140.725 41.6235H140.502C139.135 41.6235 138.452 41.521 138.452 41.3159C138.657 41.0311 139.437 40.5241 140.793 39.7949C142.388 38.6898 143.197 38.1372 143.22 38.1372H143.151L130.266 43.8965V43.811L135.341 40.4785L135.427 40.3247C135.381 40.3247 135.074 40.1994 134.504 39.9487C132.282 41.0083 131.069 41.5381 130.864 41.5381C131.263 41.2191 132.402 40.4899 134.282 39.3506C135.25 38.5531 136.287 37.8695 137.392 37.2998L137.46 37.146H137.392C136.492 37.7157 135.205 38.2682 133.53 38.8037H133.444C132.738 38.3936 132.157 37.4365 131.701 35.9326C131.405 34.9642 131.257 33.9559 131.257 32.9077V32.8223C131.257 32.7767 132.163 32.1729 133.974 31.0107C135.911 29.6208 137.426 28.658 138.52 28.1226C138.93 27.8377 139.135 27.6611 139.135 27.5928H139.05C138.264 28.0371 136.674 28.7207 134.282 29.6436C129.952 31.6829 127.451 32.8166 126.779 33.0444V32.9761C127.178 32.6571 128.745 31.6488 131.479 29.9512C131.479 27.4219 133.296 23.5311 136.931 18.2788C140.428 13.9266 143.767 10.8675 146.945 9.10156C151.229 6.48112 154.943 5.01709 158.088 4.70947C159.239 4.60693 160.122 4.55566 160.737 4.55566H161.113V4.62402C158.151 6.73177 155.547 8.40088 153.303 9.63135C153.234 9.63135 153.086 9.78516 152.858 10.0928H152.927C155.502 9.02181 157.245 8.18441 158.156 7.58057L170.051 2.28271ZM160.959 10.3149V10.3833H161.113C161.318 10.3149 161.42 10.2409 161.42 10.1611H161.335C161.175 10.2637 161.05 10.3149 160.959 10.3149ZM144.365 14.3994V14.4849C145.88 14.0063 147.014 13.4993 147.766 12.9639C148.381 12.6107 148.711 12.4341 148.757 12.4341V12.2803C146.433 13.0436 144.969 13.75 144.365 14.3994ZM159.831 16.3818V16.4502H159.899C160.15 16.3021 160.327 16.228 160.429 16.228V16.1426H160.275C160.048 16.3021 159.899 16.3818 159.831 16.3818ZM150.192 20.6201C153.519 18.3984 155.24 17.2876 155.354 17.2876L155.576 16.98C154.835 16.8319 154.203 16.7578 153.679 16.7578C150.568 16.7578 147.891 18.877 145.646 23.1152C145.316 24.2318 145.117 24.79 145.048 24.79C144.912 24.79 144.074 25.3198 142.536 26.3794H142.69C143.351 25.9237 144.063 25.5933 144.826 25.3882L144.895 25.542C144.792 25.9977 144.741 26.3281 144.741 26.5332C144.741 26.7839 144.769 27.1598 144.826 27.6611C143.983 28.1624 142.189 29.3302 139.443 31.1646H139.58C139.967 30.8797 140.907 30.4753 142.399 29.9512C143.801 29.0853 144.758 28.6523 145.271 28.6523C145.681 29.1081 146.085 29.3359 146.484 29.3359V29.4043C146.199 29.7917 145.367 30.3784 143.989 31.1646H144.057L147.766 29.4897C148.996 29.4897 150.466 28.9087 152.175 27.7466C154.043 26.0262 155.177 24.5622 155.576 23.3545C155.815 22.9102 156.123 22.124 156.499 20.9961C158.732 19.5947 159.865 18.8656 159.899 18.8086H159.831C159.125 19.2415 157.609 19.8966 155.285 20.7739C151.548 22.5399 149.628 23.4229 149.526 23.4229V23.3545C149.822 23.0697 151.058 22.2607 153.234 20.9277C154.545 19.9593 155.633 19.2757 156.499 18.877C156.499 18.6149 157 18.2617 158.002 17.8174C158.8 17.111 159.284 16.7578 159.455 16.7578V16.6724H159.301C157.547 17.3332 154.562 18.6491 150.346 20.6201H150.192ZM157.78 26.9092H157.849C159.136 26.5446 160.834 25.7869 162.941 24.6362C162.998 24.6362 163.124 24.5109 163.317 24.2603H163.232C161.705 24.6704 160.065 25.3768 158.31 26.3794L157.78 26.9092ZM148.757 34.7192V34.7876H148.979L152.021 33.6597C153.286 33.0672 154.471 32.3836 155.576 31.6089H155.422C153.041 32.3608 151.075 33.221 149.526 34.1895C149.15 34.5426 148.894 34.7192 148.757 34.7192Z" fill="url(#paint0_linear_1_19726)"/>
<defs>
<linearGradient id="paint0_linear_1_19726" x1="-21.2172" y1="-21.1667" x2="169.991" y2="10.9456" gradientUnits="userSpaceOnUse">
<stop offset="0.0364395" stop-color="#FBF4B7"/>
<stop offset="0.322909" stop-color="#31CDE2"/>
<stop offset="0.635422" stop-color="#5276FF"/>
<stop offset="1" stop-color="#D874FF"/>
</linearGradient>
</defs>
</svg>
