<svg width="25" height="60" viewBox="0 0 25 60" fill="none" xmlns="http://www.w3.org/2000/svg">
<path fill-rule="evenodd" clip-rule="evenodd" d="M11.2175 0.0310272C5.45197 0.454591 0.687667 6.12708 0.0708448 13.3026C-0.0250444 14.4176 -0.0229528 29.094 0.073225 30.1227C0.506855 34.7617 2.59557 38.8072 5.80616 41.2262C7.2818 42.3379 9.25233 43.1423 10.9252 43.3156L11.47 43.372V50.4774C11.47 54.3854 11.4499 57.5828 11.4253 57.5828C11.4007 57.5828 10.8291 57.0356 10.155 56.3669C6.4745 52.7154 6.57385 52.8077 6.32385 52.8077C5.88415 52.8077 5.5708 53.4079 5.77701 53.8553C5.90645 54.1362 11.7464 59.9485 11.939 59.9882C12.0184 60.0045 12.1483 60.0038 12.2276 59.9867C12.4225 59.9444 18.2617 54.1354 18.3897 53.8563C18.5956 53.4074 18.2828 52.8077 17.8428 52.8077C17.5928 52.8077 17.6922 52.7154 14.0117 56.3669C13.3376 57.0356 12.766 57.5828 12.7414 57.5828C12.7168 57.5828 12.6966 54.3854 12.6966 50.4774V43.372L13.2415 43.3156C14.491 43.1861 16.0056 42.6768 17.2061 41.9821C21.0327 39.7681 23.6061 35.337 24.0934 30.1227C24.1896 29.094 24.1917 14.4176 24.0958 13.3026C23.685 8.52344 21.4679 4.34157 18.0645 1.92637C16.0329 0.484657 13.728 -0.153343 11.2175 0.0310272ZM14.4283 1.81424C16.4783 2.41086 18.0772 3.46641 19.5385 5.18781C21.4833 7.47877 22.6003 10.2795 22.8671 13.5335C22.9673 14.7568 22.9675 28.603 22.8673 29.8295C22.6676 32.2732 21.9274 34.615 20.7437 36.5479C20.1453 37.5251 18.9353 38.9456 18.1742 39.5644C16.6682 40.789 14.8891 41.5867 13.1836 41.802L12.6966 41.8634V35.1287V28.3939L12.5195 28.1769C12.2786 27.8816 11.8881 27.8816 11.6472 28.1769L11.47 28.3939V35.1184V41.8428L11.3077 41.8423C10.9415 41.8411 9.73264 41.5717 9.12512 41.3559C4.82432 39.8279 1.74598 35.2939 1.29937 29.8295C1.25441 29.2791 1.22455 26.0287 1.22455 21.6815C1.22455 17.3344 1.25441 14.084 1.29937 13.5335C1.56445 10.2903 2.68806 7.4732 4.62814 5.18781C6.31872 3.19626 8.33211 2.01462 10.7846 1.57443C10.9037 1.55312 11.6017 1.5487 12.3359 1.5647C13.452 1.58902 13.7948 1.62987 14.4283 1.81424ZM11.5936 8.98203C11.1467 9.13368 10.7629 9.51639 10.5119 10.0607C10.3338 10.4468 10.3136 10.5707 10.3315 11.1656C10.3486 11.7323 10.3854 11.9027 10.57 12.2687C10.7054 12.537 10.9227 12.8033 11.1416 12.9692C11.4592 13.2098 11.5542 13.2368 12.0833 13.2368C12.6125 13.2368 12.7075 13.2098 13.0251 12.9692C13.7692 12.4054 14.0613 11.2159 13.7051 10.2008C13.3558 9.20592 12.4592 8.68836 11.5936 8.98203ZM11.6809 17.6071C11.4118 17.9369 11.3989 18.3306 11.6472 18.6348C12.0215 19.0935 12.6966 18.7763 12.6966 18.1417C12.6966 17.7896 12.3556 17.3486 12.0833 17.3486C11.9679 17.3486 11.8081 17.4513 11.6809 17.6071ZM11.6894 20.957C11.2762 21.4633 11.4949 22.2121 12.0558 22.2121C12.839 22.2121 12.9131 20.9243 12.1403 20.7426C11.9467 20.6971 11.8728 20.7322 11.6894 20.957ZM11.6196 24.3905C11.4222 24.6979 11.4303 25.0637 11.641 25.364C12.151 26.0905 13.0312 25.1448 12.5471 24.3905C12.4264 24.2025 12.3369 24.1575 12.0833 24.1575C11.8298 24.1575 11.7403 24.2025 11.6196 24.3905Z" fill="white"/>
</svg>
