<svg width="46" height="46" viewBox="0 0 46 46" fill="none" xmlns="http://www.w3.org/2000/svg">
<rect x="0.5" y="0.5" width="45" height="45" rx="22.5" fill="white" fill-opacity="0.05" stroke="url(#paint0_linear_2522_815)"/>
<path d="M34.7783 16.1856C33.9433 16.5556 33.0463 16.8056 32.1033 16.9186C33.0763 16.3364 33.8042 15.4201 34.1513 14.3406C33.2371 14.8836 32.2366 15.2658 31.1933 15.4706C30.4916 14.7215 29.5623 14.2249 28.5496 14.0581C27.5369 13.8912 26.4974 14.0634 25.5925 14.5479C24.6876 15.0323 23.968 15.802 23.5454 16.7373C23.1228 17.6727 23.0208 18.7214 23.2553 19.7206C21.403 19.6276 19.5909 19.1462 17.9367 18.3075C16.2825 17.4689 14.8231 16.2918 13.6533 14.8526C13.2533 15.5426 13.0233 16.3426 13.0233 17.1946C13.0228 17.9616 13.2117 18.7169 13.5731 19.3933C13.9346 20.0698 14.4574 20.6467 15.0953 21.0726C14.3555 21.0491 13.6321 20.8492 12.9853 20.4896V20.5496C12.9852 21.6254 13.3573 22.668 14.0384 23.5006C14.7196 24.3332 15.6678 24.9045 16.7223 25.1176C16.036 25.3033 15.3166 25.3307 14.6183 25.1976C14.9158 26.1232 15.4953 26.9326 16.2756 27.5125C17.056 28.0924 17.9982 28.4138 18.9703 28.4316C17.3201 29.727 15.2822 30.4297 13.1843 30.4266C12.8126 30.4267 12.4413 30.405 12.0723 30.3616C14.2017 31.7308 16.6806 32.4574 19.2123 32.4546C27.7823 32.4546 32.4673 25.3566 32.4673 19.2006C32.4673 19.0006 32.4623 18.7986 32.4533 18.5986C33.3646 17.9396 34.1512 17.1235 34.7763 16.1886L34.7783 16.1856Z" fill="white"/>
<path d="M34.7783 16.1856C33.9433 16.5556 33.0463 16.8056 32.1033 16.9186C33.0763 16.3364 33.8042 15.4201 34.1513 14.3406C33.2371 14.8836 32.2366 15.2658 31.1933 15.4706C30.4916 14.7215 29.5623 14.2249 28.5496 14.0581C27.5369 13.8912 26.4974 14.0634 25.5925 14.5479C24.6876 15.0323 23.968 15.802 23.5454 16.7373C23.1228 17.6727 23.0208 18.7214 23.2553 19.7206C21.403 19.6276 19.5909 19.1462 17.9367 18.3075C16.2825 17.4689 14.8231 16.2918 13.6533 14.8526C13.2533 15.5426 13.0233 16.3426 13.0233 17.1946C13.0228 17.9616 13.2117 18.7169 13.5731 19.3933C13.9346 20.0698 14.4574 20.6467 15.0953 21.0726C14.3555 21.0491 13.6321 20.8492 12.9853 20.4896V20.5496C12.9852 21.6254 13.3573 22.668 14.0384 23.5006C14.7196 24.3332 15.6678 24.9045 16.7223 25.1176C16.036 25.3033 15.3166 25.3307 14.6183 25.1976C14.9158 26.1232 15.4953 26.9326 16.2756 27.5125C17.056 28.0924 17.9982 28.4138 18.9703 28.4316C17.3201 29.727 15.2822 30.4297 13.1843 30.4266C12.8126 30.4267 12.4413 30.405 12.0723 30.3616C14.2017 31.7308 16.6806 32.4574 19.2123 32.4546C27.7823 32.4546 32.4673 25.3566 32.4673 19.2006C32.4673 19.0006 32.4623 18.7986 32.4533 18.5986C33.3646 17.9396 34.1512 17.1235 34.7763 16.1886L34.7783 16.1856Z" fill="url(#paint1_linear_2522_815)"/>
<defs>
<linearGradient id="paint0_linear_2522_815" x1="-6.12017" y1="-14.6944" x2="47.5182" y2="-11.4772" gradientUnits="userSpaceOnUse">
<stop offset="0.0364395" stop-color="#FBF4B7"/>
<stop offset="0.322909" stop-color="#31CDE2"/>
<stop offset="0.635422" stop-color="#5276FF"/>
<stop offset="1" stop-color="#D874FF"/>
</linearGradient>
<linearGradient id="paint1_linear_2522_815" x1="9.0513" y1="8.09962" x2="35.479" y2="10.0495" gradientUnits="userSpaceOnUse">
<stop offset="0.0364395" stop-color="#FBF4B7"/>
<stop offset="0.322909" stop-color="#31CDE2"/>
<stop offset="0.635422" stop-color="#5276FF"/>
<stop offset="1" stop-color="#D874FF"/>
</linearGradient>
</defs>
</svg>
